<svg width="440" height="102" viewBox="0 0 440 102" fill="none" xmlns="http://www.w3.org/2000/svg">
    <path d="M0 6H28V94H0V6ZM160 6H112V34H132V94H160V34H180V6H160ZM236 6H188V34H208V94H236V34H256V6H236ZM312 6H264V34H284V94H312V34H332V6H312ZM104 34V6H40V94H68V70H92V42H68V34H104Z" fill="black" />
    <path d="M332 91.1889C346.48 79.2272 352.891 66.9942 352.891 50.2436C352.891 45.6001 347.427 44 342.488 44C336.407 44 337.416 45.843 337.416 50.347C337.416 53.6761 338.201 57.7756 337.244 61.0404C335.893 65.6476 338.298 68.8616 340.167 73.1481C342.075 77.5234 345.149 82.5555 348.248 86.3596C350.65 89.3078 353.834 92.4307 358.693 92.4307C362.634 92.4307 368.365 92.3035 368.365 87.7394C368.365 86.4237 368.583 78.0825 367.677 78.2188C363.204 78.8919 363.704 93.859 368.537 95.0523C376.651 97.0558 384.874 97.1541 388.009 89.3262C391.496 80.6193 388.686 69.7321 386.075 61.3509C384.905 57.596 380.226 56.4181 376.102 56.4181C367.603 56.4181 373.557 73.8342 374.211 77.046C375.286 82.326 375.45 89.133 379.197 93.8105C380.683 95.6659 382.197 97.4296 382.894 99.6056C383.608 101.836 383.066 93.9447 383.066 92.4307C383.066 90.5677 384.22 78.756 388.138 78.1843C392.703 77.5183 399.277 77.1811 403.87 77.8394C407.493 78.3586 407.045 78.7399 407.653 81.7373C408.519 86.0093 398.226 88.4112 394.586 89.0502C391.626 89.5697 388.717 89.5584 385.817 89.9816C382.129 90.5197 389.586 94.4059 390.029 94.6384C392.653 96.0151 395.315 95.9312 397.766 96.915C400.338 97.947 402.048 99.2607 405.074 99.2607C408.767 99.2607 413.052 99.7555 416.68 99.2262C421.117 98.5787 422.526 92.7784 422.526 89.9471C422.526 85.8541 421.742 83.7508 416.293 82.2202C413.559 81.4525 407.051 80.8409 407.051 83.738C407.051 86.4435 405.452 92.0536 407.825 94.2934C414.82 100.898 427.985 98.6398 438 98.6398" stroke="black" stroke-width="3" stroke-linecap="round" />
    <path d="M360 67.0101C360.29 70.8709 360.969 72.0101 364.778 72.0101C365.848 72.0101 368 72.4013 368 70.7879C368 66.6137 363.889 67.0101 361 67.0101" stroke="black" stroke-width="3" stroke-linecap="round" />
</svg>