<svg version="1.1" xmlns="http://www.w3.org/2000/svg" xmlns:xlink="http://www.w3.org/1999/xlink" x="0px" y="0px" viewBox="0 0 1000 1000" enable-background="new 0 0 1000 1000" xml:space="preserve">
    <metadata> Svg Vector Icons : http://www.onlinewebfonts.com/icon </metadata>
    <g>
        <path d="M592.7,892H407.3c0-0.2-0.1-0.5-0.1-0.7H67.2V821c89.9-67,148.9-171.7,153.7-290.5l0.9,0.1c0,0-0.1-3.7-0.3-10c0-1.8,0.3-3.5,0.3-5.3c0-4.5-0.6-8.8-0.8-13.2c-0.7-31-1.3-82,0.8-124.6c1.4-29,0.9-56.9,6.5-85.3c3.9-17,9.6-33.3,16.8-48.8c2.6-5,5.3-10.1,8.6-15.2c1.4-2.2,1.7-4.3,2.9-6.5c33-55,87.3-95.9,151.5-112c-0.2-2.6-0.8-5.1-0.8-7.8c0-50.7,41.5-91.9,92.8-91.9c51.2,0,92.8,41.1,92.8,91.9c0,2.6-0.6,5.1-0.8,7.7c91.7,23.1,162.9,96.8,181.5,189.3c0-0.1,0.1-0.2,0.1-0.2c5.2,36.7,4.4,76.5,4.7,109.5c0.3,38.3,0.2,82.4,0.1,105.8c0,0.5-0.1,0.9-0.1,1.4c0,0.4,0.1,0.8,0.1,1.2c0,8.6-0.1,14.1-0.1,14.1l0.9-0.1C783.9,649.3,843,754.1,932.8,821v70.3H592.8C592.8,891.5,592.7,891.8,592.7,892L592.7,892z M586.5,924.7C573.2,961.2,539.7,990,500,990c-39.7,0-73.2-28.8-86.5-65.3H586.5L586.5,924.7z" />
    </g>
</svg>