<svg width="43" height="52" viewBox="0 0 43 52" fill="none" xmlns="http://www.w3.org/2000/svg">
    <rect width="43" height="52" />
    <path d="M19.7457 39.5692H28.1253C29.9648 39.346 31.3751 37.8287 31.4632 35.9778V23.8926C31.4632 22.2883 30.1627 20.9877 28.5584 20.9877C26.954 20.9877 25.6535 22.2883 25.6535 23.8926V31.5735C25.6535 32.1529 25.4231 32.7084 25.013 33.1177C24.603 33.527 24.047 33.7563 23.4677 33.7553H19.6722C18.8957 33.7574 18.1523 34.0699 17.6074 34.6231C17.0626 35.1764 16.7616 35.9245 16.7714 36.701C16.8159 38.3077 18.1385 39.583 19.7457 39.5692Z" fill="#510098" />
    <path d="M23.5208 11.9748H15.1413C13.3024 12.1961 11.8917 13.7121 11.8033 15.5621V27.6473C11.8033 29.2516 13.1039 30.5522 14.7082 30.5522C16.3125 30.5522 17.613 29.2516 17.613 27.6473V19.9704C17.613 18.7633 18.5917 17.7846 19.7988 17.7846H23.5944C24.3716 17.7836 25.116 17.4716 25.6618 16.9182C26.2075 16.3648 26.5091 15.6161 26.4992 14.8389C26.4504 13.2332 25.1272 11.9608 23.5208 11.9748Z" fill="#510098" />
    <path d="M24.9222 6.12841C31.7383 6.13517 37.2621 11.659 37.2689 18.4751V42.2206C36.9883 43.8702 35.6606 45.1415 34.0004 45.3502H18.23C11.4097 45.3479 5.88144 39.8196 5.87918 32.9994V9.94845C5.8781 8.93498 6.28021 7.96271 6.99685 7.24607C7.71348 6.52944 8.68575 6.12732 9.69922 6.12841H24.9222ZM24.9222 0.318666H9.69922C4.38019 0.318666 0.0676244 4.62942 0.0653687 9.94845V32.9953C0.0653687 43.0274 8.19793 51.1599 18.23 51.1599H34.3191C38.921 50.7829 42.607 47.1912 43.1031 42.6006V18.4751C43.1031 13.6555 41.1869 9.03359 37.7766 5.6279C34.3663 2.22221 29.7418 0.312175 24.9222 0.318666Z" fill="#510098" />
</svg>