<svg version="1.1" xmlns="http://www.w3.org/2000/svg" xmlns:xlink="http://www.w3.org/1999/xlink" x="0px" y="0px" viewBox="0 0 1000 1000" enable-background="new 0 0 1000 1000" xml:space="preserve">
    <metadata> Svg Vector Icons : http://www.onlinewebfonts.com/icon </metadata>
    <g>
        <path d="M729,700.3c0-13.6-6.4-24.5-19.1-32.5c-82.1-48.9-177.2-73.4-285.2-73.4c-56.6,0-117.6,7.2-183.1,21.7c-17.9,3.8-26.8,14.9-26.8,33.2c0,8.5,2.9,15.8,8.6,22c5.7,6.2,13.3,9.3,22.6,9.3c2.1,0,10-1.7,23.6-5.1c56.1-11.5,107.8-17.2,155-17.2c96.1,0,180.6,21.9,253.3,65.7c8.1,4.7,15.1,7,21.1,7c8.1,0,15.1-2.9,21.1-8.6C726.1,716.6,729,709.3,729,700.3L729,700.3z M790.3,563.2c0-17-7.4-30-22.3-38.9c-100.8-60-217.4-90-349.6-90c-65.1,0-129.5,8.9-193.3,26.8c-20.4,5.5-30.6,19.1-30.6,40.8c0,10.6,3.7,19.7,11.2,27.1c7.4,7.4,16.5,11.2,27.1,11.2c3,0,10.8-1.7,23.6-5.1c51.9-14,105.3-21.1,160.1-21.1c118.7,0,222.5,26.4,311.4,79.1c10.2,5.5,18.3,8.3,24.2,8.3c10.6,0,19.7-3.7,27.1-11.2C786.6,582.8,790.3,573.8,790.3,563.2L790.3,563.2z M859.2,404.9c0-20-8.5-34.9-25.5-44.7c-53.6-31.1-115.9-54.6-186.9-70.5c-71-16-144-23.9-218.8-23.9c-86.8,0-164.2,10-232.2,30c-9.8,3-18,8.4-24.6,16.3s-9.9,18.2-9.9,30.9c0,13.2,4.4,24.2,13.1,33.2c8.7,8.9,19.7,13.4,32.9,13.4c4.7,0,13.2-1.7,25.5-5.1c56.6-15.7,121.9-23.6,195.9-23.6c67.6,0,133.5,7.2,197.5,21.7c64,14.5,117.9,34.7,161.7,60.6c8.9,5.1,17.4,7.7,25.5,7.7c12.3,0,23.1-4.4,32.2-13.1C854.6,429.1,859.2,418.1,859.2,404.9L859.2,404.9z M990,500c0,88.9-21.9,170.9-65.7,246C880.5,821,821,880.5,746,924.3C670.9,968.1,588.9,990,500,990c-88.9,0-170.9-21.9-246-65.7C179,880.5,119.5,821,75.7,746C31.9,670.9,10,588.9,10,500s21.9-170.9,65.7-246C119.5,179,179,119.5,254,75.7C329.1,31.9,411.1,10,500,10c88.9,0,170.9,21.9,246,65.7C821,119.5,880.5,179,924.3,254C968.1,329.1,990,411.1,990,500z" />
    </g>
</svg>