<svg width="11" height="14" viewBox="0 0 11 14" fill="none" xmlns="http://www.w3.org/2000/svg">
    <path d="M9.884 9.499C10.235 9.77849 10.5178 10.1341 10.7111 10.539C10.9045 10.9438 11.0033 11.3874 11 11.836V12C11 12.5304 10.7893 13.0391 10.4142 13.4142C10.0391 13.7893 9.53043 14 9 14H2C1.46957 14 0.960859 13.7893 0.585786 13.4142C0.210714 13.0391 0 12.5304 0 12V11.836C0 10.913 0.407 10.061 1.117 9.498C1.977 8.815 3.437 8 5.5 8C7.563 8 9.023 8.815 9.884 9.499V9.499ZM5.5 7C5.04037 7 4.58525 6.90947 4.16061 6.73358C3.73597 6.55769 3.35013 6.29988 3.02513 5.97487C2.70012 5.64987 2.44231 5.26403 2.26642 4.83939C2.09053 4.41475 2 3.95963 2 3.5C2 3.04037 2.09053 2.58525 2.26642 2.16061C2.44231 1.73597 2.70012 1.35013 3.02513 1.02513C3.35013 0.700121 3.73597 0.442313 4.16061 0.266422C4.58525 0.0905301 5.04037 -6.84897e-09 5.5 0C6.42826 1.38321e-08 7.3185 0.368749 7.97487 1.02513C8.63125 1.6815 9 2.57174 9 3.5C9 4.42826 8.63125 5.3185 7.97487 5.97487C7.3185 6.63125 6.42826 7 5.5 7V7Z" fill="white" />
</svg>